<mxfile host="app.diagrams.net" modified="2020-12-03T16:25:07.142Z" agent="5.0 (Windows)" etag="zgz9MJBm67eppFW-pIa_" version="13.10.6" type="github">
  <diagram name="Page-1" id="0783ab3e-0a74-02c8-0abd-f7b4e66b4bec">
    <mxGraphModel dx="1198" dy="623" grid="1" gridSize="10" guides="1" tooltips="1" connect="1" arrows="1" fold="1" page="1" pageScale="1" pageWidth="850" pageHeight="1100" background="#ffffff" math="0" shadow="0">
      <root>
        <mxCell id="0" />
        <mxCell id="1" parent="0" />
        <mxCell id="8BaFTCeRGY86CdU8lrJs-1" value="" style="ellipse;fillColor=#000000;strokeColor=none;fontSize=15;" vertex="1" parent="1">
          <mxGeometry x="380" y="10" width="30" height="30" as="geometry" />
        </mxCell>
        <mxCell id="8BaFTCeRGY86CdU8lrJs-2" value="" style="endArrow=open;endFill=1;endSize=12;html=1;fontSize=15;exitX=0.5;exitY=1;exitDx=0;exitDy=0;" edge="1" parent="1" source="8BaFTCeRGY86CdU8lrJs-1" target="8BaFTCeRGY86CdU8lrJs-3">
          <mxGeometry width="160" relative="1" as="geometry">
            <mxPoint x="340" y="270" as="sourcePoint" />
            <mxPoint x="395" y="70" as="targetPoint" />
          </mxGeometry>
        </mxCell>
        <mxCell id="8BaFTCeRGY86CdU8lrJs-3" value="کلیک بر روی دکمه ثبت نام" style="shape=rect;html=1;rounded=1;whiteSpace=wrap;align=center;fontStyle=1;fontSize=16;" vertex="1" parent="1">
          <mxGeometry x="317.5" y="70" width="155" height="40" as="geometry" />
        </mxCell>
        <mxCell id="8BaFTCeRGY86CdU8lrJs-4" value="" style="endArrow=open;endFill=1;endSize=12;html=1;fontSize=15;exitX=0.5;exitY=1;exitDx=0;exitDy=0;" edge="1" parent="1" source="8BaFTCeRGY86CdU8lrJs-3" target="8BaFTCeRGY86CdU8lrJs-5">
          <mxGeometry width="160" relative="1" as="geometry">
            <mxPoint x="395" y="130" as="sourcePoint" />
            <mxPoint x="395" y="160" as="targetPoint" />
          </mxGeometry>
        </mxCell>
        <mxCell id="8BaFTCeRGY86CdU8lrJs-5" value="باز شدن صفحه ثبت نام" style="shape=rect;html=1;rounded=1;whiteSpace=wrap;align=center;fontStyle=1;fontSize=16;" vertex="1" parent="1">
          <mxGeometry x="317.5" y="140" width="155" height="40" as="geometry" />
        </mxCell>
        <mxCell id="8BaFTCeRGY86CdU8lrJs-6" value="" style="endArrow=open;endFill=1;endSize=12;html=1;fontSize=15;exitX=0.5;exitY=1;exitDx=0;exitDy=0;" edge="1" parent="1" source="8BaFTCeRGY86CdU8lrJs-5" target="8BaFTCeRGY86CdU8lrJs-7">
          <mxGeometry width="160" relative="1" as="geometry">
            <mxPoint x="350" y="200" as="sourcePoint" />
            <mxPoint x="395" y="220" as="targetPoint" />
          </mxGeometry>
        </mxCell>
        <mxCell id="8BaFTCeRGY86CdU8lrJs-7" value="وارد کردن نام و نام خانوادگی" style="shape=rect;html=1;rounded=1;whiteSpace=wrap;align=center;fontStyle=1;fontSize=16;" vertex="1" parent="1">
          <mxGeometry x="317.5" y="210" width="155" height="40" as="geometry" />
        </mxCell>
        <mxCell id="8BaFTCeRGY86CdU8lrJs-8" value="" style="endArrow=open;endFill=1;endSize=12;html=1;fontSize=15;exitX=0.5;exitY=1;exitDx=0;exitDy=0;" edge="1" parent="1" source="8BaFTCeRGY86CdU8lrJs-7" target="8BaFTCeRGY86CdU8lrJs-9">
          <mxGeometry width="160" relative="1" as="geometry">
            <mxPoint x="395" y="290" as="sourcePoint" />
            <mxPoint x="395" y="320" as="targetPoint" />
          </mxGeometry>
        </mxCell>
        <mxCell id="8BaFTCeRGY86CdU8lrJs-9" value="وارد کردن شماره تلفن همراه و ایمیل(اختیاری) و ادرس" style="shape=rect;html=1;rounded=1;whiteSpace=wrap;align=center;fontStyle=1;fontSize=16;" vertex="1" parent="1">
          <mxGeometry x="313.75" y="280" width="156.25" height="60" as="geometry" />
        </mxCell>
        <mxCell id="8BaFTCeRGY86CdU8lrJs-10" value="" style="endArrow=open;endFill=1;endSize=12;html=1;fontSize=15;exitX=0.5;exitY=1;exitDx=0;exitDy=0;" edge="1" parent="1" source="8BaFTCeRGY86CdU8lrJs-9" target="8BaFTCeRGY86CdU8lrJs-11">
          <mxGeometry width="160" relative="1" as="geometry">
            <mxPoint x="387.5" y="350" as="sourcePoint" />
            <mxPoint x="387.5" y="380" as="targetPoint" />
          </mxGeometry>
        </mxCell>
        <mxCell id="8BaFTCeRGY86CdU8lrJs-11" value="وارد کردن رمزعبور" style="shape=rect;html=1;rounded=1;whiteSpace=wrap;align=center;fontStyle=1;fontSize=16;" vertex="1" parent="1">
          <mxGeometry x="317.5" y="360" width="155" height="40" as="geometry" />
        </mxCell>
        <mxCell id="8BaFTCeRGY86CdU8lrJs-12" value="" style="endArrow=open;endFill=1;endSize=12;html=1;fontSize=15;exitX=0.5;exitY=1;exitDx=0;exitDy=0;exitPerimeter=0;" edge="1" parent="1" source="8BaFTCeRGY86CdU8lrJs-11" target="8BaFTCeRGY86CdU8lrJs-13">
          <mxGeometry width="160" relative="1" as="geometry">
            <mxPoint x="395" y="410" as="sourcePoint" />
            <mxPoint x="387.5" y="460" as="targetPoint" />
          </mxGeometry>
        </mxCell>
        <mxCell id="8BaFTCeRGY86CdU8lrJs-13" value="تیک پذیرش قوانین نرم افزار" style="shape=rect;html=1;rounded=1;whiteSpace=wrap;align=center;fontStyle=1;fontSize=16;" vertex="1" parent="1">
          <mxGeometry x="317.5" y="430" width="155" height="40" as="geometry" />
        </mxCell>
        <mxCell id="8BaFTCeRGY86CdU8lrJs-14" value="" style="endArrow=open;endFill=1;endSize=12;html=1;fontSize=15;exitX=0.5;exitY=1;exitDx=0;exitDy=0;" edge="1" parent="1" source="8BaFTCeRGY86CdU8lrJs-13" target="8BaFTCeRGY86CdU8lrJs-15">
          <mxGeometry width="160" relative="1" as="geometry">
            <mxPoint x="391.25" y="480" as="sourcePoint" />
            <mxPoint x="383.75" y="540" as="targetPoint" />
          </mxGeometry>
        </mxCell>
        <mxCell id="8BaFTCeRGY86CdU8lrJs-15" value="کلیک بر دکمه تایید اطلاعات" style="shape=rect;html=1;rounded=1;whiteSpace=wrap;align=center;fontStyle=1;fontSize=16;" vertex="1" parent="1">
          <mxGeometry x="317.5" y="500" width="155" height="40" as="geometry" />
        </mxCell>
        <mxCell id="8BaFTCeRGY86CdU8lrJs-16" value="" style="rhombus;fontSize=16;" vertex="1" parent="1">
          <mxGeometry x="358.44" y="570" width="73.12" height="50" as="geometry" />
        </mxCell>
        <mxCell id="8BaFTCeRGY86CdU8lrJs-17" value="" style="endArrow=open;endFill=1;endSize=12;html=1;fontSize=16;exitX=0.5;exitY=1;exitDx=0;exitDy=0;entryX=0.5;entryY=0;entryDx=0;entryDy=0;" edge="1" parent="1" source="8BaFTCeRGY86CdU8lrJs-15" target="8BaFTCeRGY86CdU8lrJs-16">
          <mxGeometry width="160" relative="1" as="geometry">
            <mxPoint x="340" y="630" as="sourcePoint" />
            <mxPoint x="500" y="630" as="targetPoint" />
          </mxGeometry>
        </mxCell>
        <mxCell id="8BaFTCeRGY86CdU8lrJs-18" value="" style="endArrow=open;endFill=1;endSize=12;html=1;fontSize=16;exitX=0;exitY=0.5;exitDx=0;exitDy=0;entryX=0;entryY=0.5;entryDx=0;entryDy=0;" edge="1" parent="1" source="8BaFTCeRGY86CdU8lrJs-16" target="8BaFTCeRGY86CdU8lrJs-5">
          <mxGeometry width="160" relative="1" as="geometry">
            <mxPoint x="60" y="530" as="sourcePoint" />
            <mxPoint x="180" y="160" as="targetPoint" />
            <Array as="points">
              <mxPoint x="180" y="595" />
              <mxPoint x="180" y="160" />
            </Array>
          </mxGeometry>
        </mxCell>
        <mxCell id="8BaFTCeRGY86CdU8lrJs-19" value="&lt;div&gt;خطا و ارسال نشدن پیام&lt;/div&gt;&lt;div&gt; تایید پس از مدت معین&lt;/div&gt;" style="edgeLabel;html=1;align=center;verticalAlign=middle;resizable=0;points=[];fontSize=16;" vertex="1" connectable="0" parent="8BaFTCeRGY86CdU8lrJs-18">
          <mxGeometry x="-0.6686" y="1" relative="1" as="geometry">
            <mxPoint x="25.56" y="-1" as="offset" />
          </mxGeometry>
        </mxCell>
        <mxCell id="8BaFTCeRGY86CdU8lrJs-20" value="" style="endArrow=open;endFill=1;endSize=12;html=1;fontSize=15;exitX=0.5;exitY=1;exitDx=0;exitDy=0;" edge="1" parent="1" source="8BaFTCeRGY86CdU8lrJs-16" target="8BaFTCeRGY86CdU8lrJs-22">
          <mxGeometry width="160" relative="1" as="geometry">
            <mxPoint x="391.88" y="640" as="sourcePoint" />
            <mxPoint x="380.63" y="710" as="targetPoint" />
          </mxGeometry>
        </mxCell>
        <mxCell id="8BaFTCeRGY86CdU8lrJs-21" value="دریافت کد تایید احراز هویت" style="edgeLabel;html=1;align=center;verticalAlign=middle;resizable=0;points=[];fontSize=16;" vertex="1" connectable="0" parent="8BaFTCeRGY86CdU8lrJs-20">
          <mxGeometry x="-0.4" y="2" relative="1" as="geometry">
            <mxPoint x="-2" y="9" as="offset" />
          </mxGeometry>
        </mxCell>
        <mxCell id="8BaFTCeRGY86CdU8lrJs-22" value="پایان ثبت نام" style="shape=rect;html=1;rounded=1;whiteSpace=wrap;align=center;fontStyle=1;fontSize=16;" vertex="1" parent="1">
          <mxGeometry x="317.5" y="690" width="155" height="40" as="geometry" />
        </mxCell>
        <mxCell id="8BaFTCeRGY86CdU8lrJs-24" value="" style="endArrow=open;endFill=1;endSize=12;html=1;fontSize=15;exitX=0.5;exitY=1;exitDx=0;exitDy=0;entryX=0.5;entryY=0;entryDx=0;entryDy=0;" edge="1" parent="1" source="8BaFTCeRGY86CdU8lrJs-22" target="8BaFTCeRGY86CdU8lrJs-29">
          <mxGeometry width="160" relative="1" as="geometry">
            <mxPoint x="395" y="850" as="sourcePoint" />
            <mxPoint x="397" y="920" as="targetPoint" />
            <Array as="points" />
          </mxGeometry>
        </mxCell>
        <mxCell id="8BaFTCeRGY86CdU8lrJs-29" value="" style="ellipse;html=1;shape=endState;fillColor=#000000;strokeColor=#000000;fontSize=16;" vertex="1" parent="1">
          <mxGeometry x="380" y="770" width="30" height="30" as="geometry" />
        </mxCell>
      </root>
    </mxGraphModel>
  </diagram>
</mxfile>
